<?xml version="1.0" encoding="UTF-8"?>
<svg id="_Ñëîé_1" data-name="Ñëîé 1" xmlns="http://www.w3.org/2000/svg" xmlns:xlink="http://www.w3.org/1999/xlink" viewBox="0 0 1035.14 1035.14">
  <defs>
    <style>
      .cls-1 {
        fill: #fc835e;
      }

      .cls-2 {
        fill: #e9120c;
      }

      .cls-3 {
        fill: #f55940;
      }

      .cls-4 {
        fill: #ee2d20;
      }

      .cls-5 {
        fill: #f76649;
      }

      .cls-6 {
        fill: #fa7655;
      }

      .cls-7 {
        fill: #ff9269;
      }

      .cls-8 {
        fill: #e80c08;
      }

      .cls-9 {
        fill: #f34b35;
      }

      .cls-10 {
        fill: #ef3526;
      }

      .cls-11 {
        fill: #ec2319;
      }

      .cls-12 {
        fill: #f96e4f;
      }

      .cls-13 {
        fill: #f34e38;
      }

      .cls-14 {
        fill: #ec261b;
      }

      .cls-15 {
        fill: #fd8a63;
      }

      .cls-16 {
        fill: #f24532;
      }

      .cls-17 {
        fill: #fd8862;
      }

      .cls-18 {
        fill: #f55a40;
      }

      .cls-19 {
        fill: #f65d43;
      }

      .cls-20 {
        fill: #e70503;
      }

      .cls-21 {
        fill: #f76246;
      }

      .cls-22 {
        fill: #f55b41;
      }

      .cls-23 {
        fill: #e80d09;
      }

      .cls-24 {
        fill: #f13e2d;
      }

      .cls-25 {
        fill: #fa7554;
      }

      .cls-26 {
        fill: #ed281d;
      }

      .cls-27 {
        fill: #f24733;
      }

      .cls-28 {
        fill: #ec2218;
      }

      .cls-29 {
        fill: #e9140e;
      }

      .cls-30 {
        fill: #fa7756;
      }

      .cls-31 {
        fill: #eb1f16;
      }

      .cls-32 {
        fill: #fe8e66;
      }

      .cls-33 {
        fill: #f97151;
      }

      .cls-34 {
        fill: #ea1b13;
      }

      .cls-35 {
        fill: #e9150f;
      }

      .cls-36 {
        fill: #ee3022;
      }

      .cls-37 {
        fill: #e70604;
      }

      .cls-38 {
        fill: #f86a4c;
      }

      .cls-39 {
        fill: #f76548;
      }

      .cls-40 {
        fill: #f4543c;
      }

      .cls-41 {
        fill: #e60301;
      }

      .cls-42 {
        fill: #e80b07;
      }

      .cls-43 {
        fill: #ea1912;
      }

      .cls-44 {
        fill: #ee3123;
      }

      .cls-45 {
        fill: #f35039;
      }

      .cls-46 {
        fill: #f14230;
      }

      .cls-47 {
        fill: #ef3325;
      }

      .cls-48 {
        fill: #fe8d66;
      }

      .cls-49 {
        fill: #f4523a;
      }

      .cls-50 {
        fill: #f65c42;
      }

      .cls-51 {
        fill: #f5583f;
      }

      .cls-52 {
        fill: #fe8b64;
      }

      .cls-53 {
        fill: #f86b4d;
      }

      .cls-54 {
        fill: #fb7a58;
      }

      .cls-55 {
        fill: #fc825e;
      }

      .cls-56 {
        fill: #f97353;
      }

      .cls-57 {
        fill: #ed271c;
      }

      .cls-58 {
        fill: #fc7f5b;
      }

      .cls-59 {
        fill: #fe9068;
      }

      .cls-60 {
        fill: #ef3727;
      }

      .cls-61 {
        fill: #eb2017;
      }

      .cls-62 {
        fill: #fb7957;
      }

      .cls-63 {
        fill: #f24632;
      }

      .cls-64 {
        fill: #e70805;
      }

      .cls-65 {
        fill: #fd8963;
      }

      .cls-66 {
        fill: #f03d2c;
      }

      .cls-67 {
        fill: #f03a2a;
      }

      .cls-68 {
        fill: #e60201;
      }

      .cls-69 {
        fill: #ef3828;
      }

      .cls-70 {
        fill: #fa7856;
      }

      .cls-71 {
        fill: #e70402;
      }

      .cls-72 {
        fill: #f4513a;
      }

      .cls-73 {
        fill: #f65f44;
      }

      .cls-74 {
        fill: #e9110c;
      }

      .cls-75 {
        fill: #f76347;
      }

      .cls-76 {
        fill: #f4553d;
      }

      .cls-77 {
        fill: #ea1811;
      }

      .cls-78 {
        fill: #f86d4e;
      }

      .cls-79 {
        fill: #f03c2b;
      }

      .cls-80 {
        fill: #e70906;
      }

      .cls-81 {
        fill: #f97252;
      }

      .cls-82 {
        fill: #e9130d;
      }

      .cls-83 {
        fill: #f66145;
      }

      .cls-84 {
        fill: #ec251a;
      }

      .cls-85 {
        fill: #f4533b;
      }

      .cls-86 {
        fill: #ec2117;
      }

      .cls-87 {
        fill: #ed2c1f;
      }

      .cls-88 {
        fill: #fb7d5a;
      }

      .cls-89 {
        fill: #e80a07;
      }

      .cls-90 {
        fill: #fb7b58;
      }

      .cls-91 {
        fill: #f14330;
      }

      .cls-92 {
        fill: #e80f0a;
      }

      .cls-93 {
        fill: #f97050;
      }

      .cls-94 {
        fill: #e80e0a;
      }

      .cls-95 {
        fill: #fa7453;
      }

      .cls-96 {
        fill: #ec241a;
      }

      .cls-97 {
        clip-path: url(#clippath);
      }

      .cls-98 {
        fill: #fb7e5b;
      }

      .cls-99 {
        fill: #fc805c;
      }

      .cls-100 {
        fill: #fb7c59;
      }

      .cls-101 {
        fill: #ee2f22;
      }

      .cls-102 {
        fill: #ed2b1f;
      }

      .cls-103 {
        fill: #ea160f;
      }

      .cls-104 {
        fill: none;
      }

      .cls-105 {
        fill: #eb1e15;
      }

      .cls-106 {
        fill: #f03929;
      }

      .cls-107 {
        fill: #fc815d;
      }

      .cls-108 {
        fill: #f65e43;
      }

      .cls-109 {
        fill: #ea1a12;
      }

      .cls-110 {
        fill: #ef3627;
      }

      .cls-111 {
        fill: #f76448;
      }

      .cls-112 {
        fill: #f34c36;
      }

      .cls-113 {
        fill: #ff9169;
      }

      .cls-114 {
        fill: #ef3425;
      }

      .cls-115 {
        fill: #ff936a;
      }

      .cls-116 {
        fill: #f7674a;
      }

      .cls-117 {
        fill: #f8694b;
      }

      .cls-118 {
        fill: #fd8660;
      }

      .cls-119 {
        fill: #fe8c65;
      }

      .cls-120 {
        fill: #fd8761;
      }

      .cls-121 {
        fill: #ed2a1e;
      }

      .cls-122 {
        fill: #ee2e21;
      }

      .cls-123 {
        fill: #e9100b;
      }

      .cls-124 {
        fill: #f4563d;
      }

      .cls-125 {
        fill: #f1402e;
      }

      .cls-126 {
        fill: #f03b2a;
      }

      .cls-127 {
        fill: #f24431;
      }

      .cls-128 {
        fill: #ed291d;
      }

      .cls-129 {
        fill: #f34d37;
      }

      .cls-130 {
        fill: #e70704;
      }

      .cls-131 {
        fill: #f86c4d;
      }

      .cls-132 {
        fill: #eb1d14;
      }

      .cls-133 {
        fill: #f5573e;
      }

      .cls-134 {
        fill: #f66045;
      }

      .cls-135 {
        fill: #ea1710;
      }

      .cls-136 {
        fill: #f8684b;
      }

      .cls-137 {
        fill: #fd8560;
      }

      .cls-138 {
        fill: #f1412f;
      }

      .cls-139 {
        fill: #f24834;
      }

      .cls-140 {
        fill: #f34f38;
      }

      .cls-141 {
        fill: #e60100;
      }

      .cls-142 {
        fill: #f96f50;
      }

      .cls-143 {
        fill: #fe8f67;
      }

      .cls-144 {
        fill: #eb1c14;
      }

      .cls-145 {
        fill: #fc845f;
      }

      .cls-146 {
        fill: #f13f2d;
      }

      .cls-147 {
        fill: #f24935;
      }

      .cls-148 {
        fill: #ee3224;
      }
    </style>
    <clipPath id="clippath">
      <circle class="cls-104" cx="517.57" cy="517.57" r="517.57"/>
    </clipPath>
  </defs>
  <g class="cls-97">
    <rect class="cls-115" x="0" y="0" width=".74" height="1035.14"/>
    <rect class="cls-115" x=".74" y="0" width="7.08" height="1035.14"/>
    <rect class="cls-7" x="7.82" y="0" width="7.08" height="1035.14"/>
    <rect class="cls-113" x="14.9" y="0" width="7.08" height="1035.14"/>
    <rect class="cls-59" x="21.98" y="0" width="7.08" height="1035.14"/>
    <rect class="cls-143" x="29.06" y="0" width="7.08" height="1035.14"/>
    <rect class="cls-32" x="36.13" y="0" width="7.08" height="1035.14"/>
    <rect class="cls-48" x="43.21" y="0" width="7.08" height="1035.14"/>
    <rect class="cls-119" x="50.29" y="0" width="7.08" height="1035.14"/>
    <rect class="cls-52" x="57.37" y="0" width="7.08" height="1035.14"/>
    <rect class="cls-15" x="64.45" y="0" width="7.08" height="1035.14"/>
    <rect class="cls-65" x="71.53" y="0" width="7.08" height="1035.14"/>
    <rect class="cls-17" x="78.61" y="0" width="7.08" height="1035.14"/>
    <rect class="cls-120" x="85.69" y="0" width="7.08" height="1035.14"/>
    <rect class="cls-118" x="92.77" y="0" width="7.08" height="1035.14"/>
    <rect class="cls-137" x="99.85" y="0" width="7.08" height="1035.14"/>
    <rect class="cls-145" x="106.93" y="0" width="7.08" height="1035.14"/>
    <rect class="cls-1" x="114.01" y="0" width="7.08" height="1035.14"/>
    <rect class="cls-55" x="121.09" y="0" width="7.08" height="1035.14"/>
    <rect class="cls-107" x="128.17" y="0" width="7.08" height="1035.14"/>
    <rect class="cls-99" x="135.25" y="0" width="7.08" height="1035.14"/>
    <rect class="cls-58" x="142.33" y="0" width="7.08" height="1035.14"/>
    <rect class="cls-98" x="149.41" y="0" width="7.08" height="1035.14"/>
    <rect class="cls-88" x="156.49" y="0" width="7.08" height="1035.14"/>
    <rect class="cls-100" x="163.57" y="0" width="7.08" height="1035.14"/>
    <rect class="cls-90" x="170.65" y="0" width="7.08" height="1035.14"/>
    <rect class="cls-54" x="177.73" y="0" width="7.08" height="1035.14"/>
    <rect class="cls-62" x="184.81" y="0" width="7.08" height="1035.14"/>
    <rect class="cls-70" x="191.89" y="0" width="7.08" height="1035.14"/>
    <rect class="cls-30" x="198.97" y="0" width="7.08" height="1035.14"/>
    <rect class="cls-6" x="206.05" y="0" width="7.08" height="1035.14"/>
    <rect class="cls-25" x="213.13" y="0" width="7.08" height="1035.14"/>
    <rect class="cls-95" x="220.21" y="0" width="7.08" height="1035.14"/>
    <rect class="cls-56" x="227.29" y="0" width="7.08" height="1035.14"/>
    <rect class="cls-81" x="234.37" y="0" width="7.08" height="1035.14"/>
    <rect class="cls-33" x="241.45" y="0" width="7.08" height="1035.14"/>
    <rect class="cls-93" x="248.53" y="0" width="7.08" height="1035.14"/>
    <rect class="cls-142" x="255.61" y="0" width="7.08" height="1035.14"/>
    <rect class="cls-12" x="262.69" y="0" width="7.08" height="1035.14"/>
    <rect class="cls-78" x="269.77" y="0" width="7.08" height="1035.14"/>
    <rect class="cls-131" x="276.85" y="0" width="7.08" height="1035.14"/>
    <rect class="cls-53" x="283.93" y="0" width="7.08" height="1035.14"/>
    <rect class="cls-38" x="291.01" y="0" width="7.08" height="1035.14"/>
    <rect class="cls-117" x="298.09" y="0" width="7.08" height="1035.14"/>
    <rect class="cls-136" x="305.17" y="0" width="7.08" height="1035.14"/>
    <rect class="cls-116" x="312.25" y="0" width="7.08" height="1035.14"/>
    <rect class="cls-5" x="319.33" y="0" width="7.08" height="1035.14"/>
    <rect class="cls-39" x="326.41" y="0" width="7.08" height="1035.14"/>
    <rect class="cls-111" x="333.49" y="0" width="7.08" height="1035.14"/>
    <rect class="cls-75" x="340.57" y="0" width="7.08" height="1035.14"/>
    <rect class="cls-21" x="347.65" y="0" width="7.08" height="1035.14"/>
    <rect class="cls-83" x="354.73" y="0" width="7.08" height="1035.14"/>
    <rect class="cls-134" x="361.81" y="0" width="7.08" height="1035.14"/>
    <rect class="cls-73" x="368.89" y="0" width="7.08" height="1035.14"/>
    <rect class="cls-108" x="375.97" y="0" width="7.08" height="1035.14"/>
    <rect class="cls-19" x="383.05" y="0" width="7.08" height="1035.14"/>
    <rect class="cls-50" x="390.13" y="0" width="7.08" height="1035.14"/>
    <rect class="cls-22" x="397.21" y="0" width="7.08" height="1035.14"/>
    <rect class="cls-18" x="404.29" y="0" width="7.08" height="1035.14"/>
    <rect class="cls-3" x="411.37" y="0" width="7.08" height="1035.14"/>
    <rect class="cls-51" x="418.45" y="0" width="7.08" height="1035.14"/>
    <rect class="cls-133" x="425.53" y="0" width="7.08" height="1035.14"/>
    <rect class="cls-124" x="432.61" y="0" width="7.08" height="1035.14"/>
    <rect class="cls-76" x="439.69" y="0" width="7.08" height="1035.14"/>
    <rect class="cls-40" x="446.77" y="0" width="7.08" height="1035.14"/>
    <rect class="cls-85" x="453.85" y="0" width="7.08" height="1035.14"/>
    <rect class="cls-49" x="460.93" y="0" width="7.08" height="1035.14"/>
    <rect class="cls-72" x="468.01" y="0" width="7.08" height="1035.14"/>
    <rect class="cls-45" x="475.09" y="0" width="7.08" height="1035.14"/>
    <rect class="cls-140" x="482.17" y="0" width="7.08" height="1035.14"/>
    <rect class="cls-13" x="489.25" y="0" width="7.08" height="1035.14"/>
    <rect class="cls-129" x="496.33" y="0" width="7.08" height="1035.14"/>
    <rect class="cls-112" x="503.4" y="0" width="7.08" height="1035.14"/>
    <rect class="cls-9" x="510.48" y="0" width="7.08" height="1035.14"/>
    <rect class="cls-147" x="517.56" y="0" width="7.08" height="1035.14"/>
    <rect class="cls-139" x="524.64" y="0" width="7.08" height="1035.14"/>
    <rect class="cls-27" x="531.72" y="0" width="7.08" height="1035.14"/>
    <rect class="cls-63" x="538.8" y="0" width="7.08" height="1035.14"/>
    <rect class="cls-16" x="545.88" y="0" width="7.08" height="1035.14"/>
    <rect class="cls-127" x="552.96" y="0" width="7.08" height="1035.14"/>
    <rect class="cls-91" x="560.04" y="0" width="7.08" height="1035.14"/>
    <rect class="cls-46" x="567.12" y="0" width="7.08" height="1035.14"/>
    <rect class="cls-138" x="574.2" y="0" width="7.08" height="1035.14"/>
    <rect class="cls-125" x="581.28" y="0" width="7.08" height="1035.14"/>
    <rect class="cls-146" x="588.36" y="0" width="7.08" height="1035.14"/>
    <rect class="cls-24" x="595.44" y="0" width="7.08" height="1035.14"/>
    <rect class="cls-66" x="602.52" y="0" width="7.08" height="1035.14"/>
    <rect class="cls-79" x="609.6" y="0" width="7.08" height="1035.14"/>
    <rect class="cls-126" x="616.68" y="0" width="7.08" height="1035.14"/>
    <rect class="cls-67" x="623.76" y="0" width="7.08" height="1035.14"/>
    <rect class="cls-106" x="630.84" y="0" width="7.08" height="1035.14"/>
    <rect class="cls-69" x="637.92" y="0" width="7.08" height="1035.14"/>
    <rect class="cls-60" x="645" y="0" width="7.08" height="1035.14"/>
    <rect class="cls-110" x="652.08" y="0" width="7.08" height="1035.14"/>
    <rect class="cls-10" x="659.16" y="0" width="7.08" height="1035.14"/>
    <rect class="cls-114" x="666.24" y="0" width="7.08" height="1035.14"/>
    <rect class="cls-47" x="673.32" y="0" width="7.08" height="1035.14"/>
    <rect class="cls-148" x="680.4" y="0" width="7.08" height="1035.14"/>
    <rect class="cls-44" x="687.48" y="0" width="7.08" height="1035.14"/>
    <rect class="cls-36" x="694.56" y="0" width="7.08" height="1035.14"/>
    <rect class="cls-101" x="701.64" y="0" width="7.08" height="1035.14"/>
    <rect class="cls-122" x="708.72" y="0" width="7.08" height="1035.14"/>
    <rect class="cls-4" x="715.8" y="0" width="7.08" height="1035.14"/>
    <rect class="cls-87" x="722.88" y="0" width="7.08" height="1035.14"/>
    <rect class="cls-102" x="729.96" y="0" width="7.08" height="1035.14"/>
    <rect class="cls-121" x="737.04" y="0" width="7.08" height="1035.14"/>
    <rect class="cls-128" x="744.12" y="0" width="7.08" height="1035.14"/>
    <rect class="cls-26" x="751.2" y="0" width="7.08" height="1035.14"/>
    <rect class="cls-57" x="758.28" y="0" width="7.08" height="1035.14"/>
    <rect class="cls-14" x="765.36" y="0" width="7.08" height="1035.14"/>
    <rect class="cls-84" x="772.44" y="0" width="7.08" height="1035.14"/>
    <rect class="cls-96" x="779.52" y="0" width="7.08" height="1035.14"/>
    <rect class="cls-11" x="786.6" y="0" width="7.08" height="1035.14"/>
    <rect class="cls-28" x="793.68" y="0" width="7.08" height="1035.14"/>
    <rect class="cls-86" x="800.76" y="0" width="7.08" height="1035.14"/>
    <rect class="cls-61" x="807.84" y="0" width="7.08" height="1035.14"/>
    <rect class="cls-31" x="814.92" y="0" width="7.08" height="1035.14"/>
    <rect class="cls-105" x="822" y="0" width="7.08" height="1035.14"/>
    <rect class="cls-132" x="829.08" y="0" width="7.08" height="1035.14"/>
    <rect class="cls-144" x="836.16" y="0" width="7.08" height="1035.14"/>
    <rect class="cls-34" x="843.24" y="0" width="7.08" height="1035.14"/>
    <rect class="cls-109" x="850.32" y="0" width="7.08" height="1035.14"/>
    <rect class="cls-43" x="857.4" y="0" width="7.08" height="1035.14"/>
    <rect class="cls-77" x="864.48" y="0" width="7.08" height="1035.14"/>
    <rect class="cls-135" x="871.56" y="0" width="7.08" height="1035.14"/>
    <rect class="cls-103" x="878.64" y="0" width="7.08" height="1035.14"/>
    <rect class="cls-35" x="885.72" y="0" width="7.08" height="1035.14"/>
    <rect class="cls-29" x="892.8" y="0" width="7.08" height="1035.14"/>
    <rect class="cls-82" x="899.88" y="0" width="7.08" height="1035.14"/>
    <rect class="cls-2" x="906.96" y="0" width="7.08" height="1035.14"/>
    <rect class="cls-74" x="914.04" y="0" width="7.08" height="1035.14"/>
    <rect class="cls-123" x="921.12" y="0" width="7.08" height="1035.14"/>
    <rect class="cls-92" x="928.2" y="0" width="7.08" height="1035.14"/>
    <rect class="cls-94" x="935.28" y="0" width="7.08" height="1035.14"/>
    <rect class="cls-23" x="942.36" y="0" width="7.08" height="1035.14"/>
    <rect class="cls-8" x="949.44" y="0" width="7.08" height="1035.14"/>
    <rect class="cls-42" x="956.52" y="0" width="7.08" height="1035.14"/>
    <rect class="cls-89" x="963.6" y="0" width="7.08" height="1035.14"/>
    <rect class="cls-80" x="970.68" y="0" width="7.08" height="1035.14"/>
    <rect class="cls-64" x="977.75" y="0" width="7.08" height="1035.14"/>
    <rect class="cls-130" x="984.83" y="0" width="7.08" height="1035.14"/>
    <rect class="cls-37" x="991.91" y="0" width="7.08" height="1035.14"/>
    <rect class="cls-20" x="998.99" y="0" width="7.08" height="1035.14"/>
    <rect class="cls-71" x="1006.07" y="0" width="7.08" height="1035.14"/>
    <rect class="cls-41" x="1013.15" y="0" width="7.08" height="1035.14"/>
    <rect class="cls-68" x="1020.23" y="0" width="7.08" height="1035.14"/>
    <rect class="cls-141" x="1027.31" y="0" width="7.08" height="1035.14"/>
    <rect class="cls-141" x="1034.39" y="0" width=".75" height="1035.14"/>
  </g>
  <path d="m262.69,787.49c7.14-31.65,18.06-62.58,32.98-91.42,13.04-25.22,29.74-48.84,49.36-69.37,17.96-18.8,38.93-35.23,61.56-48.05,21.67-12.27,45.33-21.69,69.57-27.45,23.9-5.69,48.82-8.35,73.39-7.58,24.47.77,49.13,4.57,72.62,11.49,23.45,6.9,46.32,16.82,67.25,29.46,21.07,12.73,40.78,28.36,57.7,46.26,17.38,18.39,32.47,39.33,43.96,61.88,12.24,24.03,21.21,49.8,26.04,76.34,1.51,8.32,2.66,16.72,3.6,25.12.63,5.57-3.07,12.78-6.86,16.57-4.06,4.06-10.73,7.12-16.57,6.86-6.06-.27-12.34-2.26-16.57-6.86-1.22-1.58-2.44-3.16-3.66-4.74-2.12-3.65-3.19-7.6-3.2-11.83-.24-2.13-.5-4.26-.79-6.38.28,2.08.56,4.15.84,6.23-2.45-18.05-6.64-35.87-12.71-53.05-1.66-4.71-3.47-9.38-5.41-13.98.79,1.87,1.57,3.73,2.36,5.6-6.47-15.31-14.44-29.97-23.85-43.68-2.59-3.78-5.3-7.48-8.09-11.11,1.22,1.58,2.44,3.16,3.66,4.74-10.07-13.02-21.43-25.02-33.87-35.79-3.49-3.02-7.07-5.95-10.72-8.78,1.58,1.22,3.16,2.44,4.74,3.66-13.71-10.59-28.48-19.78-44.03-27.41-4.45-2.18-8.95-4.24-13.51-6.17l5.6,2.36c-16.85-7.11-34.41-12.48-52.36-15.99-5.15-1.01-10.32-1.86-15.52-2.56,2.08.28,4.15.56,6.23.84-17.84-2.39-35.91-2.98-53.86-1.67-5.1.37-10.19.9-15.25,1.57,2.08-.28,4.15-.56,6.23-.84-16.96,2.28-33.67,6.25-49.81,11.94-4.62,1.63-9.18,3.39-13.69,5.29l5.6-2.36c-14.99,6.33-29.33,14.14-42.76,23.32-3.88,2.65-7.68,5.42-11.4,8.29,1.58-1.22,3.16-2.44,4.74-3.66-13.29,10.28-25.52,21.89-36.52,34.59-3.26,3.76-6.4,7.61-9.44,11.55,1.22-1.58,2.44-3.16,3.66-4.74-11.95,15.5-22.21,32.25-30.81,49.82-2.63,5.37-5.1,10.82-7.44,16.32.79-1.87,1.57-3.73,2.36-5.6-8.64,20.48-15.23,41.76-20.12,63.43-1.26,5.58-5.92,11.16-10.77,14-5.02,2.94-12.42,4.18-18.06,2.36-12.54-4.06-19.26-16-16.37-28.82h0Z"/>
  <g>
    <path d="m438.84,427.36c-.87,2.8-1.86,5.57-2.99,8.28.79-1.87,1.57-3.73,2.36-5.6-2.45,5.79-5.53,11.29-9.37,16.27,1.22-1.58,2.44-3.16,3.66-4.74-3.1,3.99-6.66,7.6-10.65,10.7,1.58-1.22,3.16-2.44,4.74-3.66-3.8,2.92-7.95,5.35-12.36,7.22,1.87-.79,3.73-1.57,5.6-2.36-4.63,1.94-9.5,3.25-14.48,3.92,2.08-.28,4.15-.56,6.23-.84-5.3.7-10.67.67-15.97-.04,2.08.28,4.15.56,6.23.84-5.51-.75-10.89-2.23-16.01-4.39,1.87.79,3.73,1.57,5.6,2.36-4.87-2.07-9.47-4.74-13.66-7.98,1.58,1.22,3.16,2.44,4.74,3.66-3.8-2.96-7.22-6.35-10.17-10.16,1.22,1.58,2.44,3.16,3.66,4.74-2.77-3.61-5.09-7.54-6.87-11.73.79,1.87,1.57,3.73,2.36,5.6-1.24-2.96-2.22-6.02-2.92-9.15-.72-3.05-2.12-5.71-4.19-7.97-1.65-2.55-3.84-4.56-6.57-6.03-2.69-1.71-5.59-2.64-8.71-2.78-3.11-.7-6.23-.56-9.34.42-5.67,1.83-11.14,5.35-14,10.77-.79,1.87-1.57,3.73-2.36,5.6-1.12,4.15-1.12,8.31,0,12.46.56,2.5,1.28,4.95,2.19,7.34,1.57,4.13,3.27,8.29,5.4,12.17,1.18,2.16,2.52,4.23,3.99,6.2,2.59,3.48,5.23,7.01,8.26,10.14,4.67,4.83,10.15,9.06,15.83,12.62,5.77,3.61,12.21,6.36,18.64,8.54,6.57,2.22,13.52,3.22,20.4,3.86,6.98.65,13.75-.18,20.67-1.22,7-1.05,13.33-3.61,19.8-6.44,6.6-2.88,12.32-7.17,17.85-11.73,5.84-4.82,10.63-10.89,14.93-17.08,4.73-6.83,8.09-14.57,10.98-22.33.62-1.66,1.19-3.34,1.71-5.04.98-3.11,1.12-6.23.42-9.34-.14-3.12-1.07-6.02-2.78-8.71-1.47-2.73-3.48-4.92-6.03-6.57-2.26-2.07-4.92-3.47-7.97-4.19-2.08-.28-4.15-.56-6.23-.84-4.23.01-8.17,1.08-11.83,3.2-5.23,3.37-8.9,7.99-10.77,14h0Z"/>
    <path d="m714,419.5c-.87,2.8-1.86,5.57-2.99,8.28.79-1.87,1.57-3.73,2.36-5.6-2.45,5.79-5.53,11.29-9.37,16.27,1.22-1.58,2.44-3.16,3.66-4.74-3.1,3.99-6.66,7.6-10.65,10.7,1.58-1.22,3.16-2.44,4.74-3.66-3.8,2.92-7.95,5.35-12.36,7.22,1.87-.79,3.73-1.57,5.6-2.36-4.63,1.94-9.5,3.25-14.48,3.92,2.08-.28,4.15-.56,6.23-.84-5.3.7-10.67.67-15.97-.04,2.08.28,4.15.56,6.23.84-5.51-.75-10.89-2.23-16.01-4.39,1.87.79,3.73,1.57,5.6,2.36-4.87-2.07-9.47-4.74-13.66-7.98,1.58,1.22,3.16,2.44,4.74,3.66-3.8-2.96-7.22-6.35-10.17-10.16,1.22,1.58,2.44,3.16,3.66,4.74-2.77-3.61-5.09-7.54-6.87-11.73.79,1.87,1.57,3.73,2.36,5.6-1.24-2.96-2.22-6.02-2.92-9.15-.72-3.05-2.12-5.71-4.19-7.97-1.65-2.55-3.84-4.56-6.57-6.03-2.69-1.71-5.59-2.64-8.71-2.78-3.11-.7-6.23-.56-9.34.42-5.67,1.83-11.14,5.35-14,10.77-.79,1.87-1.57,3.73-2.36,5.6-1.12,4.15-1.12,8.31,0,12.46.56,2.5,1.28,4.95,2.19,7.34,1.57,4.13,3.27,8.29,5.4,12.17,1.18,2.16,2.52,4.23,3.99,6.2,2.59,3.48,5.23,7.01,8.26,10.14,4.67,4.83,10.15,9.06,15.83,12.62,5.77,3.61,12.21,6.36,18.64,8.54,6.57,2.22,13.52,3.22,20.4,3.86,6.98.65,13.75-.18,20.67-1.22,7-1.05,13.33-3.61,19.8-6.44,6.6-2.88,12.32-7.17,17.85-11.73,5.84-4.82,10.63-10.89,14.93-17.08,4.73-6.83,8.09-14.57,10.98-22.33.62-1.66,1.19-3.34,1.71-5.04.98-3.11,1.12-6.23.42-9.34-.14-3.12-1.07-6.02-2.78-8.71-1.47-2.73-3.48-4.92-6.03-6.57-2.26-2.07-4.92-3.47-7.97-4.19-2.08-.28-4.15-.56-6.23-.84-4.23.01-8.17,1.08-11.83,3.2-5.23,3.37-8.9,7.99-10.77,14h0Z"/>
  </g>
</svg>