<?xml version="1.0" encoding="UTF-8"?>
<svg id="_Ñëîé_1" data-name="Ñëîé 1" xmlns="http://www.w3.org/2000/svg" xmlns:xlink="http://www.w3.org/1999/xlink" viewBox="0 0 1035.14 1035.14">
  <defs>
    <style>
      .cls-1 {
        fill: #161616;
      }

      .cls-2 {
        fill: url(#linear-gradient);
      }
    </style>
    <linearGradient id="linear-gradient" x1="-.3" y1="517.23" x2="1034.7" y2="517.23" gradientUnits="userSpaceOnUse">
      <stop offset="0" stop-color="#d61b13"/>
      <stop offset="1" stop-color="#910d08"/>
    </linearGradient>
  </defs>
  <circle class="cls-2" cx="517.2" cy="517.23" r="517.5"/>
  <g>
    <path class="cls-1" d="m274.24,471.85c0-22.04,17.87-39.91,39.91-39.91s39.91,17.87,39.91,39.91-17.87,39.91-39.91,39.91-39.91-17.87-39.91-39.91Z"/>
    <path class="cls-1" d="m681.52,471.85c0-22.04,17.87-39.91,39.91-39.91s39.91,17.87,39.91,39.91-17.87,39.91-39.91,39.91-39.91-17.87-39.91-39.91Z"/>
    <path class="cls-1" d="m299.71,762.25h0c-10.79-4.68-15.17-17.58-9.61-27.93,44.77-83.33,131.93-136.08,227.69-136.08s182.88,52.73,227.66,136.02c5.57,10.36,1.19,23.26-9.6,27.94h0c-9.54,4.14-20.66.27-25.58-8.9-37.84-70.46-111.53-115.06-192.48-115.06s-154.67,44.62-192.51,115.1c-4.92,9.17-16.03,13.04-25.58,8.91Z"/>
    <rect class="cls-1" x="312.65" y="305.51" width="40" height="122.21" rx="20" ry="20" transform="translate(-153.26 461.23) rotate(-58.8)"/>
    <rect class="cls-1" x="641.83" y="346.61" width="122.21" height="40" rx="20" ry="20" transform="translate(-88.25 417.16) rotate(-31.2)"/>
  </g>
</svg>